<?xml version="1.0" encoding="UTF-8" standalone="no"?>
<!DOCTYPE svg PUBLIC "-//W3C//DTD SVG 1.1//EN" "http://www.w3.org/Graphics/SVG/1.1/DTD/svg11.dtd">
<svg width="100%" height="100%" viewBox="0 0 1212 135" version="1.1" xmlns="http://www.w3.org/2000/svg" xmlns:xlink="http://www.w3.org/1999/xlink" xml:space="preserve" xmlns:serif="http://www.serif.com/" style="fill-rule:evenodd;clip-rule:evenodd;stroke-linejoin:round;stroke-miterlimit:2;">
    <g id="Side-By-Side-Logo" serif:id="Side-By-Side Logo" transform="matrix(0.472288,0,0,0.472288,165.09,-217.65)">
        <g id="Text-Logo" serif:id="Text Logo" transform="matrix(1.43997,0,0,1.43997,211.875,-813.626)">
            <g id="SIDELINE" transform="matrix(1,0,0,1,-484.006,484.393)">
                <path d="M998.84,450.112C998.84,422.825 976.687,400.671 949.399,400.671L143.558,400.671C116.271,400.671 94.117,422.825 94.117,450.112L94.117,548.994C94.117,576.282 116.271,598.435 143.558,598.435L949.399,598.435C976.687,598.435 998.84,576.282 998.84,548.994L998.84,450.112ZM221.89,470.885C221.499,470.234 220.132,469.225 217.787,467.857C215.443,466.49 212.513,465.025 208.996,463.462C205.48,461.899 201.638,460.531 197.47,459.359C193.302,458.187 189.134,457.601 184.967,457.601C179.497,457.601 175.264,458.545 172.268,460.434C169.273,462.322 167.775,465.22 167.775,469.127C167.775,472.253 168.915,474.728 171.194,476.551C173.473,478.374 176.762,479.97 181.059,481.337C185.357,482.705 190.632,484.3 196.884,486.124C205.74,488.468 213.424,491.301 219.936,494.622C226.448,497.943 231.43,502.208 234.882,507.418C238.333,512.628 240.059,519.53 240.059,528.126C240.059,535.941 238.626,542.55 235.761,547.955C232.895,553.36 229.021,557.724 224.137,561.045C219.253,564.366 213.685,566.775 207.433,568.273C201.182,569.771 194.735,570.52 188.093,570.52C181.32,570.52 174.385,569.836 167.287,568.468C160.188,567.101 153.383,565.147 146.871,562.608C140.359,560.068 134.368,556.975 128.898,553.328L142.964,525.391C143.485,526.042 145.178,527.247 148.043,529.005C150.909,530.764 154.458,532.587 158.691,534.476C162.923,536.364 167.645,538.025 172.854,539.457C178.064,540.89 183.339,541.606 188.679,541.606C194.409,541.606 198.675,540.695 201.475,538.871C204.275,537.048 205.675,534.508 205.675,531.252C205.675,527.736 204.21,525 201.279,523.047C198.349,521.093 194.377,519.335 189.362,517.772C184.348,516.209 178.585,514.451 172.073,512.497C163.607,509.893 156.607,506.962 151.072,503.706C145.536,500.45 141.434,496.478 138.764,491.789C136.094,487.1 134.759,481.24 134.759,474.207C134.759,464.438 137.071,456.201 141.694,449.493C146.318,442.786 152.537,437.707 160.351,434.255C168.166,430.804 176.696,429.078 185.944,429.078C192.456,429.078 198.74,429.86 204.796,431.422C210.852,432.985 216.518,434.939 221.792,437.283C227.067,439.628 231.788,441.972 235.956,444.316L221.89,470.885ZM256.274,568.957L256.274,430.25L288.313,430.25L288.313,568.957L256.274,568.957ZM671.416,568.957L671.416,430.25L703.456,430.25L703.456,568.957L671.416,568.957ZM535.25,540.825L535.25,568.957L437.764,568.957L437.764,430.25L533.491,430.25L533.491,458.382L469.803,458.382L469.803,485.342L524.505,485.342L524.505,511.325L469.803,511.325L469.803,540.825L535.25,540.825ZM963.091,540.825L963.091,568.957L865.605,568.957L865.605,430.25L961.332,430.25L961.332,458.382L897.645,458.382L897.645,485.342L952.346,485.342L952.346,511.325L897.645,511.325L897.645,540.825L963.091,540.825ZM558.302,568.957L558.302,430.25L590.341,430.25L590.341,540.825L657.546,540.825L657.546,568.957L558.302,568.957ZM298.862,568.957L298.862,430.25L350.633,430.25C365.871,430.25 378.602,433.343 388.826,439.53C399.05,445.716 406.767,454.052 411.977,464.536C417.186,475.021 419.791,486.645 419.791,499.408C419.791,513.474 416.926,525.717 411.195,536.136C405.465,546.555 397.422,554.63 387.068,560.361C376.714,566.091 364.569,568.957 350.633,568.957L298.862,568.957ZM746.044,489.64L746.044,568.957L714.005,568.957L714.005,430.25L739.402,430.25L803.676,511.911L803.676,430.25L835.715,430.25L835.715,568.957L809.537,568.957L746.044,489.64ZM387.166,499.408C387.166,491.333 385.733,484.203 382.868,478.016C380.002,471.83 375.835,467.011 370.365,463.559C364.894,460.108 358.317,458.382 350.633,458.382L330.902,458.382L330.902,540.825L350.633,540.825C358.448,540.825 365.057,539.034 370.462,535.452C375.867,531.871 380.002,526.922 382.868,520.605C385.733,514.288 387.166,507.223 387.166,499.408Z" style="fill:rgb(103,202,136);"/>
            </g>
            <g id="SPRINT" transform="matrix(0.678338,0,0,0.678338,540.779,755.605)">
                <g transform="matrix(288,0,0,288,256.198,438.3)">
                    <path d="M0.494,-0.502C0.492,-0.505 0.485,-0.51 0.473,-0.518C0.461,-0.525 0.446,-0.532 0.428,-0.54C0.41,-0.548 0.39,-0.555 0.369,-0.561C0.348,-0.567 0.326,-0.57 0.305,-0.57C0.277,-0.57 0.255,-0.565 0.24,-0.556C0.225,-0.546 0.217,-0.531 0.217,-0.511C0.217,-0.495 0.223,-0.482 0.235,-0.473C0.246,-0.464 0.263,-0.456 0.285,-0.449C0.307,-0.442 0.334,-0.433 0.366,-0.424C0.411,-0.412 0.451,-0.398 0.484,-0.381C0.517,-0.364 0.543,-0.342 0.561,-0.315C0.578,-0.288 0.587,-0.253 0.587,-0.209C0.587,-0.169 0.58,-0.135 0.565,-0.108C0.55,-0.08 0.531,-0.058 0.506,-0.041C0.481,-0.024 0.452,-0.011 0.42,-0.004C0.388,0.004 0.355,0.008 0.321,0.008C0.286,0.008 0.251,0.005 0.215,-0.003C0.178,-0.01 0.143,-0.02 0.11,-0.033C0.077,-0.046 0.046,-0.061 0.018,-0.08L0.09,-0.223C0.093,-0.22 0.101,-0.214 0.116,-0.205C0.131,-0.196 0.149,-0.186 0.171,-0.177C0.192,-0.167 0.216,-0.158 0.243,-0.151C0.27,-0.144 0.297,-0.14 0.324,-0.14C0.353,-0.14 0.375,-0.145 0.39,-0.154C0.404,-0.163 0.411,-0.176 0.411,-0.193C0.411,-0.211 0.404,-0.225 0.389,-0.235C0.374,-0.245 0.353,-0.254 0.328,-0.262C0.302,-0.27 0.272,-0.279 0.239,-0.289C0.196,-0.302 0.16,-0.317 0.132,-0.334C0.103,-0.351 0.082,-0.371 0.069,-0.395C0.055,-0.419 0.048,-0.449 0.048,-0.485C0.048,-0.535 0.06,-0.577 0.084,-0.612C0.107,-0.646 0.139,-0.672 0.179,-0.69C0.219,-0.707 0.263,-0.716 0.31,-0.716C0.343,-0.716 0.376,-0.712 0.407,-0.704C0.438,-0.696 0.466,-0.686 0.494,-0.674C0.521,-0.662 0.545,-0.65 0.566,-0.638L0.494,-0.502Z" style="fill:rgb(103,202,136);fill-rule:nonzero;"/>
                </g>
                <g transform="matrix(288,0,0,288,429.574,438.3)">
                    <path d="M0.068,-0L0.068,-0.71L0.371,-0.71C0.405,-0.71 0.436,-0.703 0.465,-0.69C0.493,-0.676 0.517,-0.658 0.538,-0.635C0.559,-0.612 0.575,-0.586 0.586,-0.557C0.597,-0.528 0.603,-0.499 0.603,-0.469C0.603,-0.428 0.594,-0.39 0.575,-0.353C0.556,-0.316 0.529,-0.286 0.496,-0.264C0.462,-0.241 0.422,-0.229 0.376,-0.229L0.232,-0.229L0.232,-0L0.068,-0ZM0.232,-0.372L0.366,-0.372C0.379,-0.372 0.39,-0.376 0.401,-0.383C0.412,-0.39 0.42,-0.401 0.427,-0.416C0.434,-0.431 0.437,-0.449 0.437,-0.47C0.437,-0.492 0.433,-0.51 0.426,-0.525C0.418,-0.539 0.408,-0.549 0.397,-0.556C0.385,-0.563 0.373,-0.566 0.36,-0.566L0.232,-0.566L0.232,-0.372Z" style="fill:rgb(103,202,136);fill-rule:nonzero;"/>
                </g>
                <g transform="matrix(288,0,0,288,607.846,438.3)">
                    <path d="M0.068,-0L0.068,-0.71L0.388,-0.71C0.421,-0.71 0.452,-0.703 0.481,-0.69C0.509,-0.676 0.533,-0.658 0.554,-0.635C0.575,-0.612 0.591,-0.586 0.603,-0.557C0.614,-0.528 0.62,-0.499 0.62,-0.47C0.62,-0.441 0.615,-0.413 0.606,-0.387C0.597,-0.36 0.583,-0.337 0.566,-0.316C0.549,-0.295 0.528,-0.277 0.504,-0.264L0.66,-0L0.479,-0L0.343,-0.229L0.232,-0.229L0.232,-0L0.068,-0ZM0.232,-0.372L0.382,-0.372C0.395,-0.372 0.407,-0.376 0.418,-0.385C0.428,-0.393 0.436,-0.404 0.443,-0.419C0.45,-0.434 0.453,-0.451 0.453,-0.47C0.453,-0.489 0.449,-0.506 0.442,-0.521C0.434,-0.535 0.424,-0.546 0.413,-0.554C0.402,-0.562 0.39,-0.566 0.377,-0.566L0.232,-0.566L0.232,-0.372Z" style="fill:rgb(103,202,136);fill-rule:nonzero;"/>
                </g>
                <g transform="matrix(288,0,0,288,792.742,438.3)">
                    <rect x="0.068" y="-0.71" width="0.164" height="0.71" style="fill:rgb(103,202,136);fill-rule:nonzero;"/>
                </g>
                <g transform="matrix(288,0,0,288,855.526,438.3)">
                    <path d="M0.232,-0.406L0.232,-0L0.068,-0L0.068,-0.71L0.198,-0.71L0.527,-0.292L0.527,-0.71L0.691,-0.71L0.691,-0L0.557,-0L0.232,-0.406Z" style="fill:rgb(103,202,136);fill-rule:nonzero;"/>
                </g>
                <g transform="matrix(288,0,0,288,1079.01,438.3)">
                    <path d="M0.609,-0.566L0.393,-0.566L0.393,-0L0.229,-0L0.229,-0.566L0.012,-0.566L0.012,-0.71L0.609,-0.71L0.609,-0.566Z" style="fill:rgb(103,202,136);fill-rule:nonzero;"/>
                </g>
            </g>
        </g>
        <g transform="matrix(0.316799,0,0,0.316799,796.584,431.893)">
            <g id="Icon-Only" serif:id="Icon Only">
                <g id="Icon-Logo--Football-" serif:id="Icon Logo (Football)">
                    <g id="FLAME" transform="matrix(-14.7213,-9.30589,9.30589,-14.7213,806.428,1111.66)">
                        <path d="M12,23C7.886,23 4.501,19.614 4.501,15.5C4.501,13.432 5.356,11.454 6.862,10.037C8.204,8.774 11.5,6.5 11,1.5C17,5.5 20,9.5 14,15.5C15,15.5 16.5,15.5 19,13.03C19.27,13.803 19.5,14.634 19.5,15.5C19.5,19.614 16.114,23 12,23Z" style="fill:rgb(103,202,136);fill-rule:nonzero;"/>
                    </g>
                    <path id="ROCKET" d="M806.292,287.696C907.542,138.828 1079,69.38 1233.62,99.823C1318.75,232.438 1317.16,417.423 1215.91,566.291C1199.54,590.371 1181.33,612.353 1161.66,632.222L1181.96,724.429C1183.68,732.253 1179.87,740.312 1172.74,743.962L1008.7,828.171C1002.95,831.128 996.014,830.702 990.665,827.064C986.781,824.423 984.104,820.341 983.231,815.726L962.323,705.906C960.57,696.691 955.223,688.541 947.468,683.264L796.142,580.343C788.385,575.069 778.84,573.091 769.626,574.847L659.806,595.755C655.193,596.638 650.413,595.649 646.529,593.007C641.18,589.369 638.237,583.076 638.873,576.639L656.913,393.131C657.688,385.158 663.786,378.66 671.692,377.378L764.91,362.382C776.188,336.802 789.915,311.775 806.292,287.696ZM716.23,512.983L756.392,505.337C784.035,500.07 812.669,506.005 835.941,521.826L987.267,624.747C1010.53,640.578 1026.57,665.028 1031.83,692.672L1039.48,732.835L1104.03,699.711L1092.54,647.392C1087.38,623.935 1094.5,599.394 1111.41,582.341C1128.25,565.381 1143.64,546.709 1157.4,526.492C1234.41,413.261 1244.29,273.204 1189.4,164.836C1068.45,153.607 941.821,214.264 864.81,327.495C851.059,347.713 839.35,368.891 829.745,390.816C820.1,412.813 799.891,428.45 776.178,432.266L723.317,440.776L716.23,512.983Z" style="fill:rgb(103,202,136);fill-rule:nonzero;"/>
                    <g transform="matrix(-0.556864,0.833462,-0.907105,-0.606068,1584.28,429.939)">
                        <path d="M432.058,379.622C432.058,370.998 424.438,363.997 415.052,363.997L381.042,363.997C371.656,363.997 364.037,370.998 364.037,379.622L364.037,490.066C364.037,498.69 371.656,505.691 381.042,505.691L415.052,505.691C424.438,505.691 432.058,498.69 432.058,490.066L432.058,379.622Z" style="fill:rgb(103,202,136);"/>
                    </g>
                    <g transform="matrix(-0.556864,0.833462,-0.907105,-0.606068,1655.89,320.686)">
                        <path d="M432.058,379.622C432.058,370.998 424.438,363.997 415.052,363.997L381.042,363.997C371.656,363.997 364.037,370.998 364.037,379.622L364.037,490.066C364.037,498.69 371.656,505.691 381.042,505.691L415.052,505.691C424.438,505.691 432.058,498.69 432.058,490.066L432.058,379.622Z" style="fill:rgb(103,202,136);"/>
                    </g>
                    <g transform="matrix(-0.556864,0.833462,-0.907105,-0.606068,1728.49,211.229)">
                        <path d="M432.058,379.622C432.058,370.998 424.438,363.997 415.052,363.997L381.042,363.997C371.656,363.997 364.037,370.998 364.037,379.622L364.037,490.066C364.037,498.69 371.656,505.691 381.042,505.691L415.052,505.691C424.438,505.691 432.058,498.69 432.058,490.066L432.058,379.622Z" style="fill:rgb(103,202,136);"/>
                    </g>
                </g>
            </g>
        </g>
    </g>
</svg>
