<?xml version="1.0" encoding="UTF-8" standalone="no"?>
<!DOCTYPE svg PUBLIC "-//W3C//DTD SVG 1.1//EN" "http://www.w3.org/Graphics/SVG/1.1/DTD/svg11.dtd">
<svg width="100%" height="100%" viewBox="0 0 200 50" version="1.1" xmlns="http://www.w3.org/2000/svg" xmlns:xlink="http://www.w3.org/1999/xlink" xml:space="preserve" xmlns:serif="http://www.serif.com/" style="fill-rule:evenodd;clip-rule:evenodd;stroke-linejoin:round;stroke-miterlimit:2;">
    <path d="M200,7.499C200,3.36 196.64,0 192.501,0L7.499,0C3.36,0 0,3.36 0,7.499L0,42.501C0,46.64 3.36,50 7.499,50L192.501,50C196.64,50 200,46.64 200,42.501L200,7.499Z" style="fill:rgb(103,202,136);"/>
    <g transform="matrix(1.13585,0,0,1.13585,9.67815,1.5867)">
        <g transform="matrix(16,0,0,16,23.191,26.453)">
            <path d="M0.061,-0L0.061,-0.71L0.387,-0.71C0.422,-0.71 0.454,-0.703 0.483,-0.689C0.512,-0.675 0.538,-0.656 0.559,-0.633C0.58,-0.609 0.597,-0.582 0.609,-0.553C0.62,-0.524 0.626,-0.494 0.626,-0.464C0.626,-0.437 0.622,-0.41 0.614,-0.385C0.606,-0.36 0.594,-0.337 0.579,-0.316C0.564,-0.295 0.545,-0.276 0.524,-0.261L0.674,-0L0.46,-0L0.335,-0.218L0.256,-0.218L0.256,-0L0.061,-0ZM0.256,-0.388L0.379,-0.388C0.387,-0.388 0.395,-0.391 0.402,-0.397C0.409,-0.403 0.416,-0.412 0.421,-0.423C0.426,-0.434 0.428,-0.448 0.428,-0.464C0.428,-0.481 0.425,-0.495 0.42,-0.506C0.414,-0.517 0.407,-0.525 0.399,-0.531C0.39,-0.537 0.382,-0.54 0.374,-0.54L0.256,-0.54L0.256,-0.388Z" style="fill:white;fill-rule:nonzero;"/>
        </g>
        <g transform="matrix(16,0,0,16,34.023,26.453)">
            <path d="M0.307,0.01C0.261,0.01 0.22,0.003 0.184,-0.012C0.148,-0.026 0.118,-0.045 0.094,-0.07C0.069,-0.095 0.051,-0.123 0.038,-0.155C0.025,-0.187 0.019,-0.221 0.019,-0.256C0.019,-0.307 0.03,-0.353 0.052,-0.396C0.074,-0.438 0.106,-0.472 0.149,-0.498C0.192,-0.523 0.244,-0.536 0.307,-0.536C0.37,-0.536 0.422,-0.523 0.465,-0.498C0.508,-0.473 0.54,-0.439 0.562,-0.398C0.584,-0.357 0.595,-0.312 0.595,-0.263C0.595,-0.253 0.595,-0.243 0.594,-0.233C0.592,-0.222 0.591,-0.213 0.59,-0.205L0.221,-0.205C0.222,-0.186 0.228,-0.171 0.237,-0.16C0.246,-0.148 0.257,-0.139 0.271,-0.134C0.284,-0.129 0.298,-0.126 0.313,-0.126C0.334,-0.126 0.353,-0.131 0.372,-0.14C0.39,-0.149 0.402,-0.162 0.408,-0.179L0.569,-0.133C0.555,-0.105 0.536,-0.08 0.511,-0.059C0.486,-0.038 0.456,-0.021 0.422,-0.009C0.388,0.004 0.35,0.01 0.307,0.01ZM0.217,-0.319L0.391,-0.319C0.389,-0.336 0.384,-0.351 0.377,-0.363C0.369,-0.375 0.359,-0.384 0.347,-0.391C0.334,-0.398 0.32,-0.401 0.304,-0.401C0.288,-0.401 0.274,-0.398 0.262,-0.391C0.249,-0.384 0.239,-0.375 0.232,-0.363C0.224,-0.351 0.219,-0.336 0.217,-0.319Z" style="fill:white;fill-rule:nonzero;"/>
        </g>
        <g transform="matrix(16,0,0,16,43.959,26.453)">
            <path d="M0.085,-0L0.085,-0.322L0.02,-0.322L0.02,-0.465L0.085,-0.465L0.085,-0.522C0.085,-0.566 0.093,-0.604 0.109,-0.637C0.125,-0.67 0.148,-0.695 0.177,-0.713C0.206,-0.731 0.239,-0.74 0.278,-0.74C0.301,-0.74 0.324,-0.737 0.348,-0.733C0.372,-0.728 0.397,-0.72 0.424,-0.71L0.392,-0.566C0.381,-0.57 0.369,-0.573 0.356,-0.576C0.343,-0.579 0.331,-0.58 0.321,-0.58C0.306,-0.58 0.294,-0.576 0.287,-0.568C0.279,-0.559 0.275,-0.546 0.275,-0.529L0.275,-0.465L0.39,-0.465L0.39,-0.322L0.275,-0.322L0.275,-0L0.085,-0Z" style="fill:white;fill-rule:nonzero;"/>
        </g>
        <g transform="matrix(16,0,0,16,49.127,26.453)">
            <path d="M0.307,0.01C0.261,0.01 0.22,0.003 0.184,-0.012C0.148,-0.026 0.118,-0.045 0.094,-0.07C0.069,-0.095 0.051,-0.123 0.038,-0.155C0.025,-0.187 0.019,-0.221 0.019,-0.256C0.019,-0.307 0.03,-0.353 0.052,-0.396C0.074,-0.438 0.106,-0.472 0.149,-0.498C0.192,-0.523 0.244,-0.536 0.307,-0.536C0.37,-0.536 0.422,-0.523 0.465,-0.498C0.508,-0.473 0.54,-0.439 0.562,-0.398C0.584,-0.357 0.595,-0.312 0.595,-0.263C0.595,-0.253 0.595,-0.243 0.594,-0.233C0.592,-0.222 0.591,-0.213 0.59,-0.205L0.221,-0.205C0.222,-0.186 0.228,-0.171 0.237,-0.16C0.246,-0.148 0.257,-0.139 0.271,-0.134C0.284,-0.129 0.298,-0.126 0.313,-0.126C0.334,-0.126 0.353,-0.131 0.372,-0.14C0.39,-0.149 0.402,-0.162 0.408,-0.179L0.569,-0.133C0.555,-0.105 0.536,-0.08 0.511,-0.059C0.486,-0.038 0.456,-0.021 0.422,-0.009C0.388,0.004 0.35,0.01 0.307,0.01ZM0.217,-0.319L0.391,-0.319C0.389,-0.336 0.384,-0.351 0.377,-0.363C0.369,-0.375 0.359,-0.384 0.347,-0.391C0.334,-0.398 0.32,-0.401 0.304,-0.401C0.288,-0.401 0.274,-0.398 0.262,-0.391C0.249,-0.384 0.239,-0.375 0.232,-0.363C0.224,-0.351 0.219,-0.336 0.217,-0.319Z" style="fill:white;fill-rule:nonzero;"/>
        </g>
        <g transform="matrix(16,0,0,16,59.143,26.453)">
            <path d="M0.405,-0.364C0.368,-0.364 0.335,-0.36 0.305,-0.352C0.275,-0.344 0.253,-0.331 0.238,-0.312L0.238,-0L0.048,-0L0.048,-0.526L0.222,-0.526L0.222,-0.426C0.241,-0.461 0.264,-0.489 0.292,-0.508C0.32,-0.527 0.35,-0.536 0.381,-0.536L0.397,-0.536C0.4,-0.536 0.402,-0.536 0.405,-0.535L0.405,-0.364Z" style="fill:white;fill-rule:nonzero;"/>
        </g>
        <g transform="matrix(16,0,0,16,69.207,26.453)">
            <path d="M0.225,-0.71L0.443,-0.71L0.669,-0L0.471,-0L0.428,-0.139L0.239,-0.139L0.197,-0L-0.002,-0L0.225,-0.71ZM0.397,-0.269L0.334,-0.519L0.268,-0.269L0.397,-0.269Z" style="fill:white;fill-rule:nonzero;"/>
        </g>
        <g transform="matrix(16,0,0,16,85.271,26.453)">
            <path d="M0.061,-0L0.061,-0.71L0.548,-0.71L0.548,-0.54L0.256,-0.54L0.256,-0.422L0.494,-0.422L0.494,-0.264L0.256,-0.264L0.256,-0L0.061,-0Z" style="fill:white;fill-rule:nonzero;"/>
        </g>
        <g transform="matrix(16,0,0,16,95.079,26.453)">
            <path d="M0.405,-0.364C0.368,-0.364 0.335,-0.36 0.305,-0.352C0.275,-0.344 0.253,-0.331 0.238,-0.312L0.238,-0L0.048,-0L0.048,-0.526L0.222,-0.526L0.222,-0.426C0.241,-0.461 0.264,-0.489 0.292,-0.508C0.32,-0.527 0.35,-0.536 0.381,-0.536L0.397,-0.536C0.4,-0.536 0.402,-0.536 0.405,-0.535L0.405,-0.364Z" style="fill:white;fill-rule:nonzero;"/>
        </g>
        <g transform="matrix(16,0,0,16,101.047,26.453)">
            <path d="M0.048,-0L0.048,-0.526L0.238,-0.526L0.238,-0L0.048,-0ZM0.048,-0.57L0.048,-0.73L0.238,-0.73L0.238,-0.57L0.048,-0.57Z" style="fill:white;fill-rule:nonzero;"/>
        </g>
        <g transform="matrix(16,0,0,16,104.855,26.453)">
            <path d="M0.307,0.01C0.261,0.01 0.22,0.003 0.184,-0.012C0.148,-0.026 0.118,-0.045 0.094,-0.07C0.069,-0.095 0.051,-0.123 0.038,-0.155C0.025,-0.187 0.019,-0.221 0.019,-0.256C0.019,-0.307 0.03,-0.353 0.052,-0.396C0.074,-0.438 0.106,-0.472 0.149,-0.498C0.192,-0.523 0.244,-0.536 0.307,-0.536C0.37,-0.536 0.422,-0.523 0.465,-0.498C0.508,-0.473 0.54,-0.439 0.562,-0.398C0.584,-0.357 0.595,-0.312 0.595,-0.263C0.595,-0.253 0.595,-0.243 0.594,-0.233C0.592,-0.222 0.591,-0.213 0.59,-0.205L0.221,-0.205C0.222,-0.186 0.228,-0.171 0.237,-0.16C0.246,-0.148 0.257,-0.139 0.271,-0.134C0.284,-0.129 0.298,-0.126 0.313,-0.126C0.334,-0.126 0.353,-0.131 0.372,-0.14C0.39,-0.149 0.402,-0.162 0.408,-0.179L0.569,-0.133C0.555,-0.105 0.536,-0.08 0.511,-0.059C0.486,-0.038 0.456,-0.021 0.422,-0.009C0.388,0.004 0.35,0.01 0.307,0.01ZM0.217,-0.319L0.391,-0.319C0.389,-0.336 0.384,-0.351 0.377,-0.363C0.369,-0.375 0.359,-0.384 0.347,-0.391C0.334,-0.398 0.32,-0.401 0.304,-0.401C0.288,-0.401 0.274,-0.398 0.262,-0.391C0.249,-0.384 0.239,-0.375 0.232,-0.363C0.224,-0.351 0.219,-0.336 0.217,-0.319Z" style="fill:white;fill-rule:nonzero;"/>
        </g>
        <g transform="matrix(16,0,0,16,114.871,26.453)">
            <path d="M0.577,-0L0.387,-0L0.387,-0.296C0.387,-0.322 0.381,-0.341 0.37,-0.353C0.358,-0.364 0.344,-0.37 0.329,-0.37C0.318,-0.37 0.307,-0.367 0.295,-0.361C0.283,-0.354 0.272,-0.345 0.262,-0.334C0.252,-0.323 0.244,-0.31 0.238,-0.295L0.238,-0L0.048,-0L0.048,-0.526L0.219,-0.526L0.219,-0.448C0.232,-0.467 0.248,-0.484 0.267,-0.497C0.286,-0.509 0.309,-0.519 0.334,-0.526C0.359,-0.533 0.387,-0.536 0.417,-0.536C0.453,-0.536 0.482,-0.53 0.503,-0.517C0.524,-0.504 0.54,-0.488 0.551,-0.468C0.562,-0.448 0.569,-0.427 0.572,-0.406C0.575,-0.384 0.577,-0.364 0.577,-0.346L0.577,-0Z" style="fill:white;fill-rule:nonzero;"/>
        </g>
        <g transform="matrix(16,0,0,16,124.711,26.453)">
            <path d="M0.02,-0.264C0.02,-0.316 0.03,-0.363 0.05,-0.404C0.069,-0.445 0.096,-0.477 0.131,-0.501C0.166,-0.524 0.205,-0.536 0.25,-0.536C0.284,-0.536 0.315,-0.528 0.344,-0.513C0.373,-0.497 0.394,-0.475 0.409,-0.448L0.409,-0.73L0.599,-0.73L0.599,-0.21C0.599,-0.192 0.602,-0.18 0.607,-0.173C0.612,-0.166 0.622,-0.161 0.635,-0.16L0.635,-0C0.602,0.007 0.576,0.01 0.555,0.01C0.523,0.01 0.498,0.004 0.479,-0.008C0.46,-0.02 0.448,-0.038 0.443,-0.063L0.439,-0.082C0.421,-0.05 0.397,-0.027 0.366,-0.012C0.335,0.003 0.303,0.01 0.268,0.01C0.232,0.01 0.199,0.003 0.169,-0.01C0.138,-0.023 0.112,-0.042 0.09,-0.067C0.067,-0.091 0.05,-0.12 0.038,-0.154C0.026,-0.187 0.02,-0.224 0.02,-0.264ZM0.41,-0.204L0.41,-0.298C0.404,-0.313 0.396,-0.327 0.386,-0.339C0.375,-0.35 0.364,-0.359 0.351,-0.366C0.338,-0.373 0.325,-0.376 0.312,-0.376C0.298,-0.376 0.285,-0.373 0.274,-0.367C0.262,-0.361 0.252,-0.353 0.243,-0.342C0.234,-0.331 0.228,-0.319 0.223,-0.305C0.218,-0.291 0.216,-0.276 0.216,-0.26C0.216,-0.243 0.219,-0.228 0.224,-0.215C0.229,-0.202 0.236,-0.19 0.245,-0.181C0.254,-0.171 0.265,-0.163 0.278,-0.158C0.291,-0.153 0.305,-0.15 0.32,-0.15C0.329,-0.15 0.338,-0.151 0.346,-0.154C0.354,-0.156 0.362,-0.159 0.369,-0.164C0.376,-0.168 0.384,-0.173 0.391,-0.181C0.398,-0.188 0.404,-0.195 0.41,-0.204Z" style="fill:white;fill-rule:nonzero;"/>
        </g>
    </g>
</svg>
