<?xml version="1.0" encoding="UTF-8" standalone="yes"?><svg xmlns="http://www.w3.org/2000/svg" version="1.2" baseProfile="tiny-ps" viewBox="0 0 1000 1000" xml:space="preserve"><title>Sideline Sprint</title><rect fill-rule="evenodd" fill="#67CA88" width="1000" height="1000"></rect><g id="Icon-Only-Sharp-Edges" transform="matrix(0.774381,0,0,0.774381,-184.34,87.7936)"><g><g id="FLAME" transform="matrix(-15.826,-10.0042,9.14987,-14.4745,746.862,1108.94)"><path fill="#FFFFFF" d="M12,23c-4.1,0-7.5-3.4-7.5-7.5c0-2.1,0.9-4,2.4-5.5c1.3-1.3,4.6-3.5,4.1-8.5c6,4,9,8,3,14
				c1,0,2.5,0,5-2.5c0.3,0.8,0.5,1.6,0.5,2.5C19.5,19.6,16.1,23,12,23z"></path></g><g id="Icon-Logo--Football-" transform="matrix(1,0,0,1,-73.8662,-5.36808)"><g><path id="ROCKET" fill="#FFFFFF" d="M806.3,287.7c98.6-145,263.9-214.7,415.3-190c7.7,1.3,14.4,5.8,18.4,12.5
					c78.6,131.8,74.5,311.1-24.1,456.1c-11.6,17-24,32.9-37.3,47.8c-10.5,11.7-14.8,27.9-11.4,43.3c5.9,27.3,14.7,67,14.7,67
					c1.7,7.8-2.1,15.9-9.2,19.5l-164,84.2c-5.8,3-12.7,2.5-18-1.1c-3.9-2.6-6.6-6.7-7.4-11.3l-20.9-109.8
					c-1.8-9.2-7.1-17.4-14.9-22.6L796.1,580.3c-7.8-5.3-17.3-7.3-26.5-5.5l-109.8,20.9c-4.6,0.9-9.4-0.1-13.3-2.7
					c-5.3-3.6-8.3-9.9-7.7-16.4l18-183.5c0.8-8,6.9-14.5,14.8-15.8c0,0,43.2-6.9,70.8-11.4c13.8-2.2,25.7-11,31.8-23.5
					C783.5,323.8,794.2,305.5,806.3,287.7z M716.2,513l40.2-7.6c27.6-5.3,56.3,0.7,79.5,16.5l151.3,102.9
					c23.3,15.8,39.3,40.3,44.6,67.9l7.7,40.2l64.6-33.1l-11.5-52.3c-5.2-23.5,2-48,18.9-65.1c16.8-17,32.2-35.6,46-55.8
					c77-113.2,86.9-253.3,32-361.7c-121-11.2-247.6,49.4-324.6,162.7c-13.8,20.2-25.5,41.4-35.1,63.3c-9.6,22-29.9,37.6-53.6,41.4
					l-52.9,8.5L716.2,513z"></path><path fill-rule="evenodd" fill="#FFFFFF" d="M694.5,427.2l-12.9,128.4l87.2-21.2l221.6,134.2l20.8,102l138.3-62.6l-26.8-86
					l58.1-75.9l49.9-92.4l21.4-143.9l-5.4-93.2l-50.2-81.8l-168.7,22.8l-96.5,60.1L820.6,324.2l-22.8,45.5l-55.8,48L694.5,427.2z
					 M1021.6,574.8c7.8,5.2,18.4,3.1,23.6-4.7l18.9-28.3c5.2-7.8,3.1-18.4-4.7-23.6l-144.7-96.7c-7.8-5.2-18.4-3.1-23.6,4.7
					l-18.9,28.3c-5.2,7.8-3.1,18.4,4.7,23.6L1021.6,574.8z M1093.2,465.6c7.8,5.2,18.4,3.1,23.6-4.7l18.9-28.3
					c5.2-7.8,3.1-18.4-4.7-23.6l-144.7-96.7c-7.8-5.2-18.4-3.1-23.6,4.7l-18.9,28.3c-5.2,7.8-3.1,18.4,4.7,23.6L1093.2,465.6z
					 M1167,358c7.8,5.2,18.4,3.1,23.6-4.7l18.9-28.3c5.2-7.8,3.1-18.4-4.7-23.6l-144.7-96.7c-7.8-5.2-18.4-3.1-23.6,4.7l-18.9,28.3
					c-5.2,7.8-3.1,18.4,4.7,23.6L1167,358z"></path></g></g></g></g></svg>