<?xml version="1.0" standalone="no"?>
<!DOCTYPE svg PUBLIC "-//W3C//DTD SVG 20010904//EN"
 "http://www.w3.org/TR/2001/REC-SVG-20010904/DTD/svg10.dtd">
<svg version="1.0" xmlns="http://www.w3.org/2000/svg"
 width="512.000000pt" height="512.000000pt" viewBox="0 0 512.000000 512.000000"
 preserveAspectRatio="xMidYMid meet">
<metadata>
Created by potrace 1.14, written by Peter Selinger 2001-2017
</metadata>
<g transform="translate(0.000000,512.000000) scale(0.100000,-0.100000)"
fill="#000000" stroke="none">
<path d="M3497 4854 c-1 -2 -29 -4 -62 -5 -33 -2 -64 -5 -69 -8 -5 -2 -28 -5
-50 -6 -46 -3 -72 -7 -194 -36 -105 -24 -160 -41 -317 -99 -16 -6 -30 -11 -30
-10 0 5 -280 -143 -291 -155 -9 -8 -21 -15 -29 -15 -7 0 -15 -3 -17 -7 -5 -11
-97 -73 -108 -73 -6 0 -10 -4 -10 -8 0 -5 -20 -23 -45 -41 -59 -42 -120 -97
-220 -196 -91 -90 -225 -247 -225 -263 0 -6 -3 -12 -7 -14 -11 -4 -60 -71 -61
-82 0 -5 -4 -12 -9 -15 -11 -8 -45 -60 -63 -96 -8 -16 -18 -32 -21 -35 -3 -3
-27 -48 -53 -100 -26 -52 -52 -100 -57 -106 -6 -7 -33 -15 -62 -19 -29 -4 -61
-9 -72 -11 -72 -14 -147 -27 -175 -29 -14 -1 -25 -3 -25 -5 0 -2 -16 -4 -94
-14 -54 -6 -120 -43 -122 -69 -1 -7 -3 -28 -5 -47 -1 -19 -5 -60 -8 -90 -3
-30 -8 -75 -11 -100 -3 -25 -7 -72 -10 -105 -6 -70 -14 -153 -20 -210 -3 -22
-7 -74 -11 -115 -3 -41 -8 -84 -10 -95 -2 -11 -7 -54 -10 -95 -3 -41 -7 -86
-9 -100 -3 -28 13 -70 27 -70 5 0 7 -4 4 -9 -10 -16 69 -23 130 -12 33 6 71
13 86 16 32 6 64 12 93 18 26 6 103 19 110 18 2 0 19 5 37 10 18 5 53 12 78
15 25 4 54 10 65 13 22 8 98 7 130 -2 11 -3 23 -6 27 -6 4 -1 13 -7 20 -13 8
-7 21 -17 31 -23 53 -32 253 -170 255 -177 2 -4 10 -8 18 -8 8 0 14 -4 14 -10
0 -5 6 -10 14 -10 8 0 16 -3 18 -7 2 -5 86 -64 188 -132 247 -166 265 -180
288 -221 19 -33 40 -116 47 -185 2 -16 4 -30 5 -30 2 0 11 -37 14 -65 2 -14
13 -72 24 -130 12 -58 24 -118 27 -135 10 -63 14 -76 32 -105 11 -20 28 -32
49 -36 34 -6 104 14 104 30 0 5 3 6 7 3 3 -4 11 -3 17 2 6 5 119 64 251 131
132 67 246 127 253 132 6 6 12 7 12 2 0 -5 4 -4 8 1 4 6 65 39 135 75 71 36
135 72 143 81 26 29 25 65 -7 206 -35 157 -32 142 -53 247 -9 44 -19 83 -21
87 -3 4 16 30 42 58 66 70 126 140 137 160 5 9 12 18 16 21 4 3 36 48 72 100
76 109 172 281 218 390 18 41 39 90 47 108 8 18 16 40 18 50 3 9 16 55 31 102
14 47 27 92 29 100 2 8 4 15 5 15 2 0 7 24 15 75 4 24 9 48 11 51 2 4 6 27 9
50 3 24 10 75 16 112 20 122 13 473 -11 556 -4 16 -6 32 -3 34 2 3 -1 25 -7
48 -7 24 -14 55 -16 69 -2 14 -7 36 -11 50 -3 14 -7 30 -8 35 -21 95 -99 292
-160 405 -25 47 -51 97 -58 112 -16 38 -60 51 -222 64 -65 6 -265 11 -268 8z
m-484 -529 c18 6 820 -536 833 -564 17 -34 4 -69 -61 -166 -78 -115 -103 -124
-196 -63 -33 21 -62 38 -65 38 -5 0 -521 347 -619 415 -78 55 -104 88 -97 121
5 26 27 71 42 84 3 3 17 23 30 45 14 22 31 48 40 59 18 22 74 48 78 36 2 -5 9
-7 15 -5z m-272 -620 c27 -19 53 -35 57 -35 5 0 17 -9 27 -20 10 -11 22 -20
26 -20 5 0 17 -7 26 -15 10 -8 70 -48 133 -89 63 -41 120 -79 125 -83 6 -5 51
-36 100 -68 50 -32 92 -63 93 -67 2 -4 8 -8 12 -8 16 0 138 -90 144 -106 14
-36 3 -67 -54 -152 -65 -98 -76 -109 -105 -112 -39 -4 -52 0 -111 38 -133 87
-430 282 -439 290 -14 11 -182 125 -202 137 -10 6 -24 16 -32 23 -8 8 -31 25
-53 38 -21 13 -38 32 -39 42 0 9 -2 24 -4 32 -3 19 18 62 63 125 17 25 32 48
32 51 0 11 34 39 59 50 32 14 72 0 142 -51z m-55 -766 c480 -320 465 -303 385
-421 -17 -25 -31 -51 -31 -57 0 -6 -4 -11 -10 -11 -5 0 -16 -13 -25 -30 -16
-30 -52 -47 -90 -41 -24 4 -153 83 -320 195 -66 45 -124 83 -130 85 -5 2 -12
7 -15 10 -3 3 -49 35 -102 70 -54 35 -110 74 -125 88 -16 13 -45 33 -65 45
-21 12 -38 25 -38 30 0 4 -6 8 -13 8 -8 0 -19 10 -24 23 -26 52 -22 66 34 150
30 45 65 92 76 105 45 48 57 42 493 -249z"/>
<path d="M1534 2038 c-3 -4 -10 -5 -17 -2 -23 8 -171 -41 -242 -80 -75 -43
-175 -135 -222 -206 -28 -42 -46 -80 -43 -89 1 -2 -3 -7 -8 -10 -6 -4 -13 -18
-15 -31 -2 -14 -7 -33 -10 -42 -20 -52 -21 -51 35 -43 99 14 243 14 299 1 50
-11 143 -55 135 -63 -2 -2 -36 -12 -77 -23 -76 -21 -87 -25 -154 -55 -22 -10
-42 -19 -45 -20 -13 -3 -79 -41 -110 -63 -242 -177 -277 -464 -108 -887 20
-49 24 -60 49 -121 l13 -31 40 66 c38 63 93 130 145 175 13 12 29 26 35 31 65
61 245 133 376 151 19 3 42 8 50 10 8 3 33 8 54 11 22 2 58 11 80 19 23 9 58
20 79 26 20 6 37 15 37 20 0 5 5 6 10 3 6 -3 10 -2 10 3 0 5 14 15 31 22 33
14 189 159 189 176 0 6 8 19 18 30 24 26 81 157 86 197 3 18 5 32 6 32 12 0
17 226 5 245 -4 7 -9 28 -11 47 -6 70 -88 219 -170 308 -77 84 -239 172 -349
189 -16 2 -30 5 -30 6 0 6 -167 4 -171 -2z"/>
</g>
</svg>
